<?xml version="1.0" encoding="UTF-8"?><!DOCTYPE svg PUBLIC "-//W3C//DTD SVG 1.1//EN" "http://www.w3.org/Graphics/SVG/1.1/DTD/svg11.dtd"><svg xmlns="http://www.w3.org/2000/svg"><defs><style>.cls-1{fill:#fff;fill-rule:evenodd}</style><style>.cls-1{fill-rule:evenodd}</style></defs><symbol id="arrow-down" viewBox="0 0 13 9"><path d="M13 2.394L6.5 9.001-.001 2.394 1.374.992 6.5 6.201 11.625.992 13 2.394z" class="cls-1"/></symbol><symbol id="download" viewBox="0 0 450.96 563"><path d="M428.48 487.441h-406c-12.402 0-22.48 10.16-22.48 22.48v30c0 12.398 10.16 22.477 22.48 22.477h405.84c12.398 0 22.48-10.16 22.48-22.477v-30c.239-12.48-9.921-22.48-22.32-22.48M209.762 447.199c4.398 4.402 10.16 6.641 15.839 6.641 5.758 0 11.52-2.238 15.84-6.641l153.758-153.758c8.723-8.723 8.723-22.961 0-31.839l-21.277-21.282c-8.723-8.718-22.961-8.718-31.844 0l-79.039 79.122V22.48c0-12.402-10.16-22.48-22.48-22.48h-30c-12.399 0-22.481 10-22.481 22.48v297.04l-79.117-79.122c-8.723-8.718-23.039-8.718-31.84 0L55.84 261.68c-8.719 8.718-8.719 23.039 0 31.839l153.922 153.68z"/></symbol><symbol id="facebook" viewBox="0 0 4.9980001 12.007"><path d="M3.817 2.103h1.18V0H3.488C1.865 0 1.134.792 1.134 2.309v1.616H0v2.053h1.134v6.029h2.181V5.952h1.521l.162-2.027H3.315V2.771c-.001-.478.086-.668.502-.668z"/></symbol><symbol id="format-pdf" viewBox="0 0 314.023 385.711"><path d="M77.773 248.156c0-6.406-4.445-10.228-12.285-10.228-3.203 0-5.371.317-6.508.618V259.1c1.344.302 2.997.403 5.274.403 8.355.001 13.519-4.222 13.519-11.347M126.324 238.144c-3.515 0-5.785.306-7.125.618v45.516c1.344.316 3.512.316 5.473.316 14.246.102 23.539-7.743 23.539-24.359.101-14.45-8.367-22.091-21.887-22.091"/><path d="M216.523 0H61.605C38.973 0 20.551 18.433 20.551 41.051v151.804h-4.008C7.406 192.855 0 200.258 0 209.398v100.323c0 9.142 7.406 16.54 16.543 16.54h4.008v18.398c0 22.644 18.422 41.051 41.054 41.051H272.98c22.621 0 41.043-18.41 41.043-41.051V97.16L216.523 0zM43.398 227.504c4.848-.821 11.661-1.438 21.262-1.438 9.703 0 16.617 1.852 21.266 5.57 4.437 3.507 7.433 9.292 7.433 16.102 0 6.809-2.269 12.598-6.398 16.52-5.371 5.054-13.316 7.324-22.609 7.324-2.067 0-3.922-.103-5.372-.305v24.879H43.398v-68.652zM272.98 360.57H61.605c-8.765 0-15.902-7.138-15.902-15.91v-18.398h197.051c9.137 0 16.543-7.398 16.543-16.54V209.398c0-9.141-7.406-16.543-16.543-16.543H45.703V41.051c0-8.75 7.137-15.887 15.902-15.887l145.512-.152v53.789c0 15.711 12.746 28.468 28.469 28.468l52.688-.152.594 237.543c-.001 8.773-7.122 15.91-15.888 15.91m-169.574-64.73v-68.336c5.782-.922 13.317-1.438 21.266-1.438 13.211 0 21.781 2.37 28.492 7.426 7.227 5.371 11.766 13.934 11.766 26.227 0 13.312-4.848 22.503-11.562 28.175-7.328 6.091-18.476 8.981-32.101 8.981-8.158 0-13.939-.521-17.861-1.035m112.664-40.461v12.797h-24.984v27.98h-15.793v-69.574h42.527v12.897h-26.734v15.899h24.984z"/></symbol><symbol id="format-png" viewBox="0 0 314.023 385.711"><path d="M64.969 248.156c0-6.406-4.438-10.228-12.278-10.228-3.203 0-5.371.317-6.507.618V259.1c1.336.302 2.988.403 5.257.403 8.36.001 13.528-4.222 13.528-11.347"/><path d="M216.523 0H61.605C38.973 0 20.551 18.433 20.551 41.051v151.804h-4.008C7.402 192.855 0 200.258 0 209.397v100.324c0 9.142 7.402 16.54 16.543 16.54h4.008v18.398c0 22.644 18.422 41.051 41.054 41.051H272.98c22.621 0 41.043-18.41 41.043-41.051V97.16L216.523 0zM30.602 227.504c4.839-.821 11.648-1.438 21.257-1.438 9.707 0 16.618 1.852 21.27 5.57 4.437 3.507 7.426 9.292 7.426 16.102 0 6.809-2.27 12.598-6.395 16.52-5.371 5.054-13.324 7.324-22.605 7.324-2.067 0-3.934-.103-5.371-.305v24.879H30.602v-68.652zM272.98 360.57H61.605c-8.765 0-15.902-7.138-15.902-15.91v-18.398h197.043c9.145 0 16.543-7.398 16.543-16.54V209.397c0-9.14-7.398-16.542-16.543-16.542H45.703V41.051c0-8.75 7.137-15.887 15.902-15.887l145.512-.152v53.789c0 15.711 12.746 28.468 28.469 28.468l52.688-.152.594 237.543c-.001 8.773-7.122 15.91-15.888 15.91M133.762 246.918v-20.336h14.449v69.574h-16.516l-14.867-26.845c-4.133-7.425-8.676-16.418-12.078-24.562l-.305.101c.407 9.181.621 18.989.621 30.349v20.957H90.602v-69.574h18.386l14.446 25.492c4.136 7.328 8.261 16 11.363 23.844h.301c-1.036-9.176-1.336-18.586-1.336-29m63.304 37.258c3.617 0 6.508-.414 7.742-1.032v-14.55h-10.73v-12.282h25.914v36.642c-4.855 1.651-14.047 3.918-23.227 3.918-12.695 0-21.887-3.199-28.293-9.392-6.395-5.987-9.911-15.065-9.797-25.293.102-23.12 16.922-36.336 39.742-36.336 8.977 0 15.898 1.754 19.305 3.418l-3.305 12.582c-3.82-1.651-8.574-2.987-16.215-2.987-13.102 0-23.012 7.426-23.012 22.504.001 14.351 8.978 22.808 21.876 22.808"/></symbol><symbol id="instagram" viewBox="0 0 11.982 12.009"><path d="M1.538 0h8.906c.846 0 1.538.628 1.538 1.541v8.927c0 .913-.692 1.541-1.538 1.541H1.538C.691 12.009 0 11.381 0 10.468V1.541C0 .628.691 0 1.538 0zm7.19 1.334a.542.542 0 0 0-.539.541v1.294c0 .298.243.541.539.541h1.354c.297 0 .54-.243.54-.541V1.875a.542.542 0 0 0-.54-.541H8.728zm1.899 3.744H9.572c.1.327.154.673.154 1.03 0 1.997-1.667 3.616-3.725 3.616-2.057 0-3.724-1.619-3.724-3.616 0-.357.054-.703.154-1.03h-1.1v5.073c0 .262.214.477.476.477h8.344a.478.478 0 0 0 .476-.477V5.078zM6.002 3.642c-1.329 0-2.406 1.046-2.406 2.337 0 1.29 1.077 2.337 2.406 2.337 1.329 0 2.407-1.047 2.407-2.337-.001-1.292-1.078-2.337-2.407-2.337z"/></symbol><symbol id="nav" viewBox="0 0 12 12"><path fill="#fff" d="M0 12v-2h12v2H0zm0-7h12v2H0V5zm0-5h12v2H0V0z" clip-rule="evenodd" fill-rule="evenodd"/></symbol><symbol id="pin" viewBox="0 0 25 27.9995"><title>pin</title><path class="cls-1" d="M15.441 24.637L12.5 28l-2.941-3.362a12.5 12.5 0 1 1 5.882 0zM12.5 8a4.5 4.5 0 1 0 4.5 4.5A4.5 4.5 0 0 0 12.5 8z"/></symbol><symbol id="twitter" viewBox="0 0 15.002 12.006"><path d="M15.002 1.422a6.22 6.22 0 0 1-1.768.477A3.05 3.05 0 0 0 14.587.222c-.595.347-1.253.6-1.954.735A3.097 3.097 0 0 0 10.386 0C8.4 0 6.939 1.826 7.388 3.722A8.78 8.78 0 0 1 1.045.555a3.006 3.006 0 0 0 .953 4.046 3.103 3.103 0 0 1-1.394-.379c-.034 1.404.988 2.717 2.468 3.01a3.127 3.127 0 0 1-1.39.052 3.074 3.074 0 0 0 2.875 2.105A6.255 6.255 0 0 1 0 10.644a8.807 8.807 0 0 0 4.718 1.362c5.714 0 8.942-4.753 8.748-9.016a6.187 6.187 0 0 0 1.536-1.568z"/></symbol></svg>